<svg width="30" height="30" viewBox="0 0 30 30" fill="none" xmlns="http://www.w3.org/2000/svg">
<path d="M9.56989 23.3344C7.84012 23.3344 6.43794 24.7366 6.43794 26.4663C6.43794 28.1961 7.84019 29.5983 9.56989 29.5983C11.2996 29.5983 12.7018 28.196 12.7018 26.4663C12.7019 24.7366 11.2996 23.3344 9.56989 23.3344ZM9.56989 28.2063C8.60892 28.2063 7.82993 27.4274 7.82993 26.4664C7.82993 25.5054 8.60892 24.7264 9.56989 24.7264C10.5309 24.7264 11.3098 25.5054 11.3098 26.4664C11.3099 27.4274 10.5309 28.2063 9.56989 28.2063ZM22.7938 23.3344C21.064 23.3344 19.6618 24.7366 19.6618 26.4663C19.6618 28.1961 21.0641 29.5983 22.7938 29.5983C24.5235 29.5983 25.9257 28.196 25.9257 26.4663C25.9257 24.7366 24.5236 23.3344 22.7938 23.3344ZM22.7938 28.2063C21.8328 28.2063 21.0538 27.4274 21.0538 26.4664C21.0538 25.5054 21.8328 24.7264 22.7938 24.7264C23.7548 24.7264 24.5338 25.5054 24.5338 26.4664C24.5338 27.4274 23.7548 28.2063 22.7938 28.2063ZM29.8581 5.06458C29.7132 4.90629 29.5149 4.80713 29.3013 4.78616L6.64676 4.47296L6.02037 2.55896C5.57909 1.27947 4.38093 0.415688 3.02757 0.401367H0.695995C0.311596 0.401367 0 0.712963 0 1.09736C0 1.48176 0.311596 1.79336 0.695995 1.79336H3.02757C3.39706 1.80153 3.75519 1.92263 4.05381 2.14037C4.35243 2.35812 4.57723 2.66207 4.69798 3.01137L9.11755 16.3397L8.76958 17.14C8.57827 17.6334 8.5069 18.1652 8.56135 18.6916C8.6158 19.2179 8.79451 19.7238 9.08278 20.1676C9.36813 20.6032 9.75439 20.9636 10.2088 21.218C10.6632 21.4725 11.1722 21.6135 11.6928 21.6292H25.2299C25.6143 21.6292 25.9259 21.3176 25.9259 20.9332C25.9259 20.5488 25.6143 20.2372 25.2299 20.2372H11.6927C11.399 20.2298 11.1117 20.1497 10.8566 20.0039C10.6015 19.8581 10.3866 19.6513 10.2311 19.402C10.077 19.1551 9.98126 18.8763 9.95111 18.5869C9.92096 18.2974 9.95722 18.0049 10.0571 17.7316L10.3356 17.1052L24.9862 15.574C26.5955 15.3967 27.9193 14.2263 28.2922 12.6508L29.9626 5.65607C29.9996 5.55712 30.0094 5.45009 29.991 5.34608C29.9726 5.24206 29.9268 5.14487 29.8581 5.06458ZM26.935 12.3377C26.7091 13.3518 25.848 14.0999 24.8122 14.1821L10.3356 15.6784L7.09917 5.86495L28.4314 6.17815L26.935 12.3377Z" fill="#9AF064"/>
</svg>
