<svg width="24" height="24" viewBox="0 0 24 24" fill="none" xmlns="http://www.w3.org/2000/svg">
<path d="M12 21.3528C11.6583 21.3528 11.3289 21.229 11.0722 21.0041C10.1026 20.1563 9.16789 19.3596 8.34317 18.6569L8.33895 18.6532C5.92105 16.5928 3.8331 14.8133 2.38035 13.0604C0.75642 11.1009 0 9.24291 0 7.21318C0 5.24115 0.676217 3.42179 1.90392 2.09008C3.14629 0.742612 4.85099 0.000488281 6.70457 0.000488281C8.08995 0.000488281 9.35867 0.438487 10.4755 1.3022C11.039 1.73814 11.5499 2.27172 12 2.89408C12.4502 2.27172 12.9609 1.73814 13.5247 1.3022C14.6415 0.438487 15.9102 0.000488281 17.2956 0.000488281C19.149 0.000488281 20.8538 0.742612 22.0962 2.09008C23.3239 3.42179 24 5.24115 24 7.21318C24 9.24286 23.2437 11.1009 21.6198 13.0603C20.167 14.8133 18.0792 16.5926 15.6617 18.6529C14.8355 19.3567 13.8993 20.1547 12.9276 21.0045C12.6708 21.2291 12.3412 21.3529 12 21.3528ZM6.70457 1.40636C5.24835 1.40636 3.91059 1.98756 2.93737 3.04295C1.94972 4.11432 1.40568 5.59529 1.40568 7.21318C1.40568 8.92027 2.04014 10.447 3.4627 12.1634C4.83763 13.8225 6.88274 15.5653 9.25067 17.5834L9.25503 17.587C10.0828 18.2925 11.0213 19.0923 11.998 19.9463C12.9805 19.0907 13.9204 18.2896 14.7498 17.583C17.1176 15.565 19.1625 13.8225 20.5374 12.1634C21.9598 10.447 22.5943 8.92027 22.5943 7.21318C22.5943 5.59524 22.0502 4.11428 21.0626 3.04295C20.0896 1.98756 18.7516 1.40636 17.2956 1.40636C16.2288 1.40636 15.2493 1.7455 14.3846 2.41417C13.6139 3.01037 13.077 3.76403 12.7622 4.29137C12.6004 4.56254 12.3155 4.7244 12 4.7244C11.6845 4.7244 11.3996 4.56254 11.2377 4.29137C10.9232 3.76403 10.3863 3.01037 9.61536 2.41417C8.75061 1.7455 7.77116 1.40636 6.70457 1.40636Z" fill="#9AF064"/>
</svg>
